<svg xmlns="http://www.w3.org/2000/svg" xmlns:xlink="http://www.w3.org/1999/xlink" id="processonSvg1000" viewBox="67.22994652406419 192.625 1078.5401069518714 938.617424242424" width="1078.5401069518714" height="938.617424242424"><defs id="ProcessOnDefs1001"/><g id="ProcessOnG1002"><path id="ProcessOnPath1003" d="M67.22994652406419 192.625H1145.7700534759356V1131.242424242424H67.22994652406419V192.625Z" fill="none"/><g id="ProcessOnG1004"><g id="ProcessOnG1005" transform="matrix(1.0,0.0,0.0,1.0,198.2299465240642,605.6060606060606)" opacity="1.0"><path id="ProcessOnPath1006" d="M0.0 0.0L72.88770053475936 0.0L72.88770053475936 38.78787878787879L0.0 38.78787878787879Z" stroke="#323232" stroke-width="2.0" stroke-dasharray="none" opacity="1.0" fill="#ffffff"/><g id="ProcessOnG1007" transform="matrix(1.0,0.0,0.0,1.0,10.0,3.1439393939393945)"><text id="ProcessOnText1008" fill="#000000" font-size="13" x="25.44385026737968" y="13.325" font-family="微软雅黑" font-weight="normal" font-style="normal" text-decoration="none" family="微软雅黑" text-anchor="middle" size="13">基准资</text><text id="ProcessOnText1009" fill="#000000" font-size="13" x="25.44385026737968" y="29.575" font-family="微软雅黑" font-weight="normal" font-style="normal" text-decoration="none" family="微软雅黑" text-anchor="middle" size="13">费</text></g></g><g id="ProcessOnG1010" transform="matrix(1.0,0.0,0.0,1.0,87.22994652406422,692.7575757575758)" opacity="1.0"><path id="ProcessOnPath1011" d="M0.0 24.242424242424242C0.0 -8.080808080808081 77.54010695187166 -8.080808080808081 77.54010695187166 24.242424242424242C77.54010695187166 56.56565656565657 0.0 56.56565656565657 0.0 24.242424242424242Z" stroke="#323232" stroke-width="2.0" stroke-dasharray="none" opacity="1.0" fill="#ffffff"/><g id="ProcessOnG1012" transform="matrix(1.0,0.0,0.0,1.0,10.0,16.117424242424242)"><text id="ProcessOnText1013" fill="#000000" font-size="13" x="27.770053475935832" y="13.325" font-family="微软雅黑" font-weight="normal" font-style="normal" text-decoration="none" family="微软雅黑" text-anchor="middle" size="13">通话费用</text></g></g><g id="ProcessOnG1014" transform="matrix(1.0,0.0,0.0,1.0,87.22994652406419,779.7575757575758)" opacity="1.0"><path id="ProcessOnPath1015" d="M0.0 24.242424242424242C0.0 -8.080808080808081 77.54010695187166 -8.080808080808081 77.54010695187166 24.242424242424242C77.54010695187166 56.56565656565657 0.0 56.56565656565657 0.0 24.242424242424242Z" stroke="#323232" stroke-width="2.0" stroke-dasharray="none" opacity="1.0" fill="#ffffff"/><g id="ProcessOnG1016" transform="matrix(1.0,0.0,0.0,1.0,10.0,16.117424242424242)"><text id="ProcessOnText1017" fill="#000000" font-size="13" x="27.770053475935832" y="13.325" font-family="微软雅黑" font-weight="normal" font-style="normal" text-decoration="none" family="微软雅黑" text-anchor="middle" size="13">短信费用</text></g></g><g id="ProcessOnG1018" transform="matrix(1.0,0.0,0.0,1.0,87.22994652406419,600.7575757575758)" opacity="1.0"><path id="ProcessOnPath1019" d="M0.0 24.242424242424242C0.0 -8.080808080808081 77.54010695187166 -8.080808080808081 77.54010695187166 24.242424242424242C77.54010695187166 56.56565656565657 0.0 56.56565656565657 0.0 24.242424242424242Z" stroke="#323232" stroke-width="2.0" stroke-dasharray="none" opacity="1.0" fill="#ffffff"/><g id="ProcessOnG1020" transform="matrix(1.0,0.0,0.0,1.0,10.0,7.992424242424242)"><text id="ProcessOnText1021" fill="#000000" font-size="13" x="27.770053475935832" y="13.325" font-family="微软雅黑" font-weight="normal" font-style="normal" text-decoration="none" family="微软雅黑" text-anchor="middle" size="13">本地流量</text><text id="ProcessOnText1022" fill="#000000" font-size="13" x="27.770053475935832" y="29.575" font-family="微软雅黑" font-weight="normal" font-style="normal" text-decoration="none" family="微软雅黑" text-anchor="middle" size="13">费用</text></g></g><g id="ProcessOnG1023" transform="matrix(1.0,0.0,0.0,1.0,87.22994652406419,511.78787878787875)" opacity="1.0"><path id="ProcessOnPath1024" d="M0.0 24.242424242424242C0.0 -8.080808080808081 77.54010695187166 -8.080808080808081 77.54010695187166 24.242424242424242C77.54010695187166 56.56565656565657 0.0 56.56565656565657 0.0 24.242424242424242Z" stroke="#323232" stroke-width="2.0" stroke-dasharray="none" opacity="1.0" fill="#ffffff"/><g id="ProcessOnG1025" transform="matrix(1.0,0.0,0.0,1.0,10.0,7.992424242424242)"><text id="ProcessOnText1026" fill="#000000" font-size="13" x="27.770053475935832" y="13.325" font-family="微软雅黑" font-weight="normal" font-style="normal" text-decoration="none" family="微软雅黑" text-anchor="middle" size="13">国内流量</text><text id="ProcessOnText1027" fill="#000000" font-size="13" x="27.770053475935832" y="29.575" font-family="微软雅黑" font-weight="normal" font-style="normal" text-decoration="none" family="微软雅黑" text-anchor="middle" size="13">费用</text></g></g><g id="ProcessOnG1028" transform="matrix(1.0,0.0,0.0,1.0,486.59679449560815,908.6060606060605)" opacity="1.0"><path id="ProcessOnPath1029" d="M0.0 0.0L72.88770053475936 0.0L72.88770053475936 38.78787878787879L0.0 38.78787878787879Z" stroke="#323232" stroke-width="2.0" stroke-dasharray="none" opacity="1.0" fill="#ffffff"/><g id="ProcessOnG1030" transform="matrix(1.0,0.0,0.0,1.0,10.0,11.268939393939394)"><text id="ProcessOnText1031" fill="#000000" font-size="13" x="25.44385026737968" y="13.325" font-family="微软雅黑" font-weight="normal" font-style="normal" text-decoration="none" family="微软雅黑" text-anchor="middle" size="13">套餐</text></g></g><g id="ProcessOnG1032" transform="matrix(1.0,0.0,0.0,1.0,486.55614973262027,605.6060606060606)" opacity="1.0"><path id="ProcessOnPath1033" d="M0.0 0.0L72.88770053475936 0.0L72.88770053475936 38.78787878787879L0.0 38.78787878787879Z" stroke="#323232" stroke-width="2.0" stroke-dasharray="none" opacity="1.0" fill="#ffffff"/><g id="ProcessOnG1034" transform="matrix(1.0,0.0,0.0,1.0,10.0,11.268939393939394)"><text id="ProcessOnText1035" fill="#000000" font-size="13" x="25.44385026737968" y="13.325" font-family="微软雅黑" font-weight="normal" font-style="normal" text-decoration="none" family="微软雅黑" text-anchor="middle" size="13">用户</text></g></g><g id="ProcessOnG1036" transform="matrix(1.0,0.0,0.0,1.0,286.60748968277403,835.2424242424242)" opacity="1.0"><path id="ProcessOnPath1037" d="M0.0 24.242424242424242C0.0 -8.080808080808081 77.54010695187166 -8.080808080808081 77.54010695187166 24.242424242424242C77.54010695187166 56.56565656565657 0.0 56.56565656565657 0.0 24.242424242424242Z" stroke="#323232" stroke-width="2.0" stroke-dasharray="none" opacity="1.0" fill="#ffffff"/><g id="ProcessOnG1038" transform="matrix(1.0,0.0,0.0,1.0,10.0,16.117424242424242)"><text id="ProcessOnText1039" fill="#000000" font-size="13" x="27.770053475935832" y="13.325" font-family="微软雅黑" font-weight="normal" font-style="normal" text-decoration="none" family="微软雅黑" text-anchor="middle" size="13">月功能费</text></g></g><g id="ProcessOnG1040" transform="matrix(1.0,0.0,0.0,1.0,317.14759663464577,1062.7575757575755)" opacity="1.0"><path id="ProcessOnPath1041" d="M0.0 24.242424242424242C0.0 -8.080808080808081 77.54010695187166 -8.080808080808081 77.54010695187166 24.242424242424242C77.54010695187166 56.56565656565657 0.0 56.56565656565657 0.0 24.242424242424242Z" stroke="#323232" stroke-width="2.0" stroke-dasharray="none" opacity="1.0" fill="#ffffff"/><g id="ProcessOnG1042" transform="matrix(1.0,0.0,0.0,1.0,10.0,16.117424242424242)"><text id="ProcessOnText1043" fill="#000000" font-size="13" x="27.770053475935832" y="13.325" font-family="微软雅黑" font-weight="normal" font-style="normal" text-decoration="none" family="微软雅黑" text-anchor="middle" size="13">全国流量</text></g></g><g id="ProcessOnG1044" transform="matrix(1.0,0.0,0.0,1.0,286.60748968277403,914.2424242424242)" opacity="1.0"><path id="ProcessOnPath1045" d="M0.0 24.242424242424242C0.0 -8.080808080808081 77.54010695187166 -8.080808080808081 77.54010695187166 24.242424242424242C77.54010695187166 56.56565656565657 0.0 56.56565656565657 0.0 24.242424242424242Z" stroke="#323232" stroke-width="2.0" stroke-dasharray="none" opacity="1.0" fill="#ffffff"/><g id="ProcessOnG1046" transform="matrix(1.0,0.0,0.0,1.0,10.0,16.117424242424242)"><text id="ProcessOnText1047" fill="#000000" font-size="13" x="27.770053475935832" y="13.325" font-family="微软雅黑" font-weight="normal" font-style="normal" text-decoration="none" family="微软雅黑" text-anchor="middle" size="13">套餐编号</text></g></g><g id="ProcessOnG1048" transform="matrix(1.0,0.0,0.0,1.0,242.0673827309024,291.27272727272725)" opacity="1.0"><path id="ProcessOnPath1049" d="M0.0 24.242424242424242C0.0 -8.080808080808081 77.54010695187166 -8.080808080808081 77.54010695187166 24.242424242424242C77.54010695187166 56.56565656565657 0.0 56.56565656565657 0.0 24.242424242424242Z" stroke="#323232" stroke-width="2.0" stroke-dasharray="none" opacity="1.0" fill="#ffffff"/><g id="ProcessOnG1050" transform="matrix(1.0,0.0,0.0,1.0,10.0,16.117424242424242)"><text id="ProcessOnText1051" fill="#000000" font-size="13" x="27.770053475935832" y="13.325" font-family="微软雅黑" font-weight="normal" font-style="normal" text-decoration="none" family="微软雅黑" text-anchor="middle" size="13">手机号</text></g></g><g id="ProcessOnG1052" transform="matrix(1.0,0.0,0.0,1.0,87.22994652406419,427.75757575757575)" opacity="1.0"><path id="ProcessOnPath1053" d="M0.0 24.242424242424242C0.0 -8.080808080808081 77.54010695187166 -8.080808080808081 77.54010695187166 24.242424242424242C77.54010695187166 56.56565656565657 0.0 56.56565656565657 0.0 24.242424242424242Z" stroke="#323232" stroke-width="2.0" stroke-dasharray="none" opacity="1.0" fill="#ffffff"/><g id="ProcessOnG1054" transform="matrix(1.0,0.0,0.0,1.0,10.0,16.117424242424242)"><text id="ProcessOnText1055" fill="#000000" font-size="13" x="27.770053475935832" y="13.325" font-family="微软雅黑" font-weight="normal" font-style="normal" text-decoration="none" family="微软雅黑" text-anchor="middle" size="13">编号</text></g></g><g id="ProcessOnG1056" transform="matrix(1.0,0.0,0.0,1.0,488.1475966346456,757.7575757575758)" opacity="1.0"><path id="ProcessOnPath1057" d="M0.0 24.242424242424242L34.893048128342244 0.0L69.78609625668449 24.242424242424242L34.893048128342244 48.484848484848484L0.0 24.242424242424242Z" stroke="#323232" stroke-width="2.0" stroke-dasharray="none" opacity="1.0" fill="#ffffff"/><g id="ProcessOnG1058" transform="matrix(1.0,0.0,0.0,1.0,10.0,16.117424242424242)"><text id="ProcessOnText1059" fill="#000000" font-size="13" x="23.893048128342244" y="13.325" font-family="微软雅黑" font-weight="normal" font-style="normal" text-decoration="none" family="微软雅黑" text-anchor="middle" size="13">订购</text></g></g><g id="ProcessOnG1060"><path id="ProcessOnPath1061" d="M523.0 644.3939393939394L523.0406447629878 757.7575757575758" stroke="#323232" stroke-width="2.0" stroke-dasharray="none" fill="none"/><g id="ProcessOnG1062" transform="matrix(1.0,0.0,0.0,1.0,523.0203223814939,692.9507575757575)"><path id="ProcessOnPath1063" d="M0 0H11.0V16.25H0Z" fill="#fff" transform="matrix(1.0,0.0,0.0,1.0,-5.5,0.0)"/><text id="ProcessOnText1064" fill="#000000" font-size="13" x="0.0" y="13.325" font-family="微软雅黑" font-weight="normal" font-style="normal" text-decoration="none" family="微软雅黑" text-anchor="middle" size="13">N</text></g></g><g id="ProcessOnG1065"><path id="ProcessOnPath1066" d="M523.0406447629878 806.2424242424242L523.040644762988 908.6060606060605" stroke="#323232" stroke-width="2.0" stroke-dasharray="none" fill="none"/><g id="ProcessOnG1067" transform="matrix(1.0,0.0,0.0,1.0,523.0406447629879,849.2992424242424)"><path id="ProcessOnPath1068" d="M0 0H11.0V16.25H0Z" fill="#fff" transform="matrix(1.0,0.0,0.0,1.0,-5.5,0.0)"/><text id="ProcessOnText1069" fill="#000000" font-size="13" x="0.0" y="13.325" font-family="微软雅黑" font-weight="normal" font-style="normal" text-decoration="none" family="微软雅黑" text-anchor="middle" size="13">N</text></g></g><g id="ProcessOnG1070"><path id="ProcessOnPath1071" d="M523.0 605.6060606060606L280.83743620683833 339.75757575757575" stroke="#323232" stroke-width="2.0" stroke-dasharray="none" fill="none"/></g><g id="ProcessOnG1072" transform="matrix(1.0,0.0,0.0,1.0,621.2299465240642,706.1428571428571)" opacity="1.0"><path id="ProcessOnPath1073" d="M0.0 24.242424242424242C0.0 -8.080808080808081 77.54010695187166 -8.080808080808081 77.54010695187166 24.242424242424242C77.54010695187166 56.56565656565657 0.0 56.56565656565657 0.0 24.242424242424242Z" stroke="#323232" stroke-width="2.0" stroke-dasharray="none" opacity="1.0" fill="#ffffff"/><g id="ProcessOnG1074" transform="matrix(1.0,0.0,0.0,1.0,10.0,16.117424242424242)"><text id="ProcessOnText1075" fill="#000000" font-size="13" x="27.770053475935832" y="13.325" font-family="微软雅黑" font-weight="normal" font-style="normal" text-decoration="none" family="微软雅黑" text-anchor="middle" size="13">订单号</text></g></g><g id="ProcessOnG1076" transform="matrix(1.0,0.0,0.0,1.0,621.2299465240642,768.2424242424242)" opacity="1.0"><path id="ProcessOnPath1077" d="M0.0 24.242424242424242C0.0 -8.080808080808081 77.54010695187166 -8.080808080808081 77.54010695187166 24.242424242424242C77.54010695187166 56.56565656565657 0.0 56.56565656565657 0.0 24.242424242424242Z" stroke="#323232" stroke-width="2.0" stroke-dasharray="none" opacity="1.0" fill="#ffffff"/><g id="ProcessOnG1078" transform="matrix(1.0,0.0,0.0,1.0,10.0,16.117424242424242)"><text id="ProcessOnText1079" fill="#000000" font-size="13" x="27.770053475935832" y="13.325" font-family="微软雅黑" font-weight="normal" font-style="normal" text-decoration="none" family="微软雅黑" text-anchor="middle" size="13">时间</text></g></g><g id="ProcessOnG1080"><path id="ProcessOnPath1081" d="M557.9336928913301 782.0L621.2299465240642 730.3852813852814" stroke="#323232" stroke-width="2.0" stroke-dasharray="none" fill="none"/></g><g id="ProcessOnG1082"><path id="ProcessOnPath1083" d="M557.9336928913301 782.0L621.2299465240642 792.4848484848485" stroke="#323232" stroke-width="2.0" stroke-dasharray="none" fill="none"/></g><g id="ProcessOnG1084" transform="matrix(1.0,0.0,0.0,1.0,912.5561497326203,605.6060606060606)" opacity="1.0"><path id="ProcessOnPath1085" d="M0.0 0.0L72.88770053475936 0.0L72.88770053475936 38.78787878787879L0.0 38.78787878787879Z" stroke="#323232" stroke-width="2.0" stroke-dasharray="none" opacity="1.0" fill="#ffffff"/><g id="ProcessOnG1086" transform="matrix(1.0,0.0,0.0,1.0,10.0,3.1439393939393945)"><text id="ProcessOnText1087" fill="#000000" font-size="13" x="25.44385026737968" y="13.325" font-family="微软雅黑" font-weight="normal" font-style="normal" text-decoration="none" family="微软雅黑" text-anchor="middle" size="13">短信记</text><text id="ProcessOnText1088" fill="#000000" font-size="13" x="25.44385026737968" y="29.575" font-family="微软雅黑" font-weight="normal" font-style="normal" text-decoration="none" family="微软雅黑" text-anchor="middle" size="13">录</text></g></g><g id="ProcessOnG1089" transform="matrix(1.0,0.0,0.0,1.0,1048.229946524064,253.27272727272725)" opacity="1.0"><path id="ProcessOnPath1090" d="M0.0 24.242424242424242C0.0 -8.080808080808081 77.54010695187166 -8.080808080808081 77.54010695187166 24.242424242424242C77.54010695187166 56.56565656565657 0.0 56.56565656565657 0.0 24.242424242424242Z" stroke="#323232" stroke-width="2.0" stroke-dasharray="none" opacity="1.0" fill="#ffffff"/><g id="ProcessOnG1091" transform="matrix(1.0,0.0,0.0,1.0,10.0,16.117424242424242)"><text id="ProcessOnText1092" fill="#000000" font-size="13" x="27.770053475935832" y="13.325" font-family="微软雅黑" font-weight="normal" font-style="normal" text-decoration="none" family="微软雅黑" text-anchor="middle" size="13">开始时间</text></g></g><g id="ProcessOnG1093" transform="matrix(1.0,0.0,0.0,1.0,1048.229946524064,319.27272727272725)" opacity="1.0"><path id="ProcessOnPath1094" d="M0.0 24.242424242424242C0.0 -8.080808080808081 77.54010695187166 -8.080808080808081 77.54010695187166 24.242424242424242C77.54010695187166 56.56565656565657 0.0 56.56565656565657 0.0 24.242424242424242Z" stroke="#323232" stroke-width="2.0" stroke-dasharray="none" opacity="1.0" fill="#ffffff"/><g id="ProcessOnG1095" transform="matrix(1.0,0.0,0.0,1.0,10.0,16.117424242424242)"><text id="ProcessOnText1096" fill="#000000" font-size="13" x="27.770053475935832" y="13.325" font-family="微软雅黑" font-weight="normal" font-style="normal" text-decoration="none" family="微软雅黑" text-anchor="middle" size="13">使用流量</text></g></g><g id="ProcessOnG1097" transform="matrix(1.0,0.0,0.0,1.0,1048.229946524064,382.27272727272725)" opacity="1.0"><path id="ProcessOnPath1098" d="M0.0 24.242424242424242C0.0 -8.080808080808081 77.54010695187166 -8.080808080808081 77.54010695187166 24.242424242424242C77.54010695187166 56.56565656565657 0.0 56.56565656565657 0.0 24.242424242424242Z" stroke="#323232" stroke-width="2.0" stroke-dasharray="none" opacity="1.0" fill="#ffffff"/><g id="ProcessOnG1099" transform="matrix(1.0,0.0,0.0,1.0,10.0,16.117424242424242)"><text id="ProcessOnText1100" fill="#000000" font-size="13" x="27.770053475935832" y="13.325" font-family="微软雅黑" font-weight="normal" font-style="normal" text-decoration="none" family="微软雅黑" text-anchor="middle" size="13">结束时间</text></g></g><g id="ProcessOnG1101" transform="matrix(1.0,0.0,0.0,1.0,1048.229946524064,562.0151515151515)" opacity="1.0"><path id="ProcessOnPath1102" d="M0.0 24.242424242424242C0.0 -8.080808080808081 77.54010695187166 -8.080808080808081 77.54010695187166 24.242424242424242C77.54010695187166 56.56565656565657 0.0 56.56565656565657 0.0 24.242424242424242Z" stroke="#323232" stroke-width="2.0" stroke-dasharray="none" opacity="1.0" fill="#ffffff"/><g id="ProcessOnG1103" transform="matrix(1.0,0.0,0.0,1.0,10.0,16.117424242424242)"><text id="ProcessOnText1104" fill="#000000" font-size="13" x="27.770053475935832" y="13.325" font-family="微软雅黑" font-weight="normal" font-style="normal" text-decoration="none" family="微软雅黑" text-anchor="middle" size="13">发出时间</text></g></g><g id="ProcessOnG1105"><path id="ProcessOnPath1106" d="M985.4438502673796 625.0L1048.229946524064 586.2575757575758" stroke="#323232" stroke-width="2.0" stroke-dasharray="none" fill="none"/></g><g id="ProcessOnG1107" transform="matrix(1.0,0.0,0.0,1.0,732.1069518716578,600.7575757575758)" opacity="1.0"><path id="ProcessOnPath1108" d="M0.0 24.242424242424242L34.893048128342244 0.0L69.78609625668449 24.242424242424242L34.893048128342244 48.484848484848484L0.0 24.242424242424242Z" stroke="#323232" stroke-width="2.0" stroke-dasharray="none" opacity="1.0" fill="#ffffff"/><g id="ProcessOnG1109" transform="matrix(1.0,0.0,0.0,1.0,10.0,16.117424242424242)"><text id="ProcessOnText1110" fill="#000000" font-size="13" x="23.893048128342244" y="13.325" font-family="微软雅黑" font-weight="normal" font-style="normal" text-decoration="none" family="微软雅黑" text-anchor="middle" size="13">拥有</text></g></g><g id="ProcessOnG1111"><path id="ProcessOnPath1112" d="M559.4438502673796 625.0L732.1069518716578 625.0" stroke="#323232" stroke-width="2.0" stroke-dasharray="none" fill="none"/><g id="ProcessOnG1113" transform="matrix(1.0,0.0,0.0,1.0,645.7754010695187,616.875)"><path id="ProcessOnPath1114" d="M0 0H8.0V16.25H0Z" fill="#fff" transform="matrix(1.0,0.0,0.0,1.0,-4.0,0.0)"/><text id="ProcessOnText1115" fill="#000000" font-size="13" x="0.0" y="13.325" font-family="微软雅黑" font-weight="normal" font-style="normal" text-decoration="none" family="微软雅黑" text-anchor="middle" size="13">1</text></g></g><g id="ProcessOnG1116"><path id="ProcessOnPath1117" d="M801.8930481283422 625.0L912.5561497326203 625.0" stroke="#323232" stroke-width="2.0" stroke-dasharray="none" fill="none"/><g id="ProcessOnG1118" transform="matrix(1.0,0.0,0.0,1.0,857.2245989304813,616.875)"><path id="ProcessOnPath1119" d="M0 0H11.0V16.25H0Z" fill="#fff" transform="matrix(1.0,0.0,0.0,1.0,-5.5,0.0)"/><text id="ProcessOnText1120" fill="#000000" font-size="13" x="0.0" y="13.325" font-family="微软雅黑" font-weight="normal" font-style="normal" text-decoration="none" family="微软雅黑" text-anchor="middle" size="13">N</text></g></g><g id="ProcessOnG1121"><path id="ProcessOnPath1122" d="M164.77005347593587 452.0L198.2299465240642 625.0" stroke="#323232" stroke-width="2.0" stroke-dasharray="none" fill="none"/></g><g id="ProcessOnG1123"><path id="ProcessOnPath1124" d="M164.77005347593587 536.030303030303L198.2299465240642 625.0" stroke="#323232" stroke-width="2.0" stroke-dasharray="none" fill="none"/></g><g id="ProcessOnG1125"><path id="ProcessOnPath1126" d="M164.77005347593587 625.0L198.2299465240642 625.0" stroke="#323232" stroke-width="2.0" stroke-dasharray="none" fill="none"/></g><g id="ProcessOnG1127"><path id="ProcessOnPath1128" d="M164.77005347593587 717.0L198.2299465240642 625.0" stroke="#323232" stroke-width="2.0" stroke-dasharray="none" fill="none"/></g><g id="ProcessOnG1129"><path id="ProcessOnPath1130" d="M164.77005347593587 804.0L198.2299465240642 625.0" stroke="#323232" stroke-width="2.0" stroke-dasharray="none" fill="none"/></g><g id="ProcessOnG1131" transform="matrix(1.0,0.0,0.0,1.0,425.5775401069522,1062.7575757575755)" opacity="1.0"><path id="ProcessOnPath1132" d="M0.0 24.242424242424242C0.0 -8.080808080808081 77.54010695187166 -8.080808080808081 77.54010695187166 24.242424242424242C77.54010695187166 56.56565656565657 0.0 56.56565656565657 0.0 24.242424242424242Z" stroke="#323232" stroke-width="2.0" stroke-dasharray="none" opacity="1.0" fill="#ffffff"/><g id="ProcessOnG1133" transform="matrix(1.0,0.0,0.0,1.0,10.0,16.117424242424242)"><text id="ProcessOnText1134" fill="#000000" font-size="13" x="27.770053475935832" y="13.325" font-family="微软雅黑" font-weight="normal" font-style="normal" text-decoration="none" family="微软雅黑" text-anchor="middle" size="13">本地流量</text></g></g><g id="ProcessOnG1135" transform="matrix(1.0,0.0,0.0,1.0,525.1069518716578,1062.7575757575755)" opacity="1.0"><path id="ProcessOnPath1136" d="M0.0 24.242424242424242C0.0 -8.080808080808081 77.54010695187166 -8.080808080808081 77.54010695187166 24.242424242424242C77.54010695187166 56.56565656565657 0.0 56.56565656565657 0.0 24.242424242424242Z" stroke="#323232" stroke-width="2.0" stroke-dasharray="none" opacity="1.0" fill="#ffffff"/><g id="ProcessOnG1137" transform="matrix(1.0,0.0,0.0,1.0,10.0,16.117424242424242)"><text id="ProcessOnText1138" fill="#000000" font-size="13" x="27.770053475935832" y="13.325" font-family="微软雅黑" font-weight="normal" font-style="normal" text-decoration="none" family="微软雅黑" text-anchor="middle" size="13">通话时长</text></g></g><g id="ProcessOnG1139" transform="matrix(1.0,0.0,0.0,1.0,625.0246019822392,1062.7575757575755)" opacity="1.0"><path id="ProcessOnPath1140" d="M0.0 24.242424242424242C0.0 -8.080808080808081 77.54010695187166 -8.080808080808081 77.54010695187166 24.242424242424242C77.54010695187166 56.56565656565657 0.0 56.56565656565657 0.0 24.242424242424242Z" stroke="#323232" stroke-width="2.0" stroke-dasharray="none" opacity="1.0" fill="#ffffff"/><g id="ProcessOnG1141" transform="matrix(1.0,0.0,0.0,1.0,10.0,16.117424242424242)"><text id="ProcessOnText1142" fill="#000000" font-size="13" x="27.770053475935832" y="13.325" font-family="微软雅黑" font-weight="normal" font-style="normal" text-decoration="none" family="微软雅黑" text-anchor="middle" size="13">短信条数</text></g></g><g id="ProcessOnG1143"><path id="ProcessOnPath1144" d="M364.1475966346457 938.4848484848485L486.59679449560815 927.9999999999999" stroke="#323232" stroke-width="2.0" stroke-dasharray="none" fill="none"/></g><g id="ProcessOnG1145"><path id="ProcessOnPath1146" d="M364.1475966346457 859.4848484848485L486.59679449560815 927.9999999999999" stroke="#323232" stroke-width="2.0" stroke-dasharray="none" fill="none"/></g><g id="ProcessOnG1147" transform="matrix(1.0,0.0,0.0,1.0,527.566844919786,295.27272727272725)" opacity="1.0"><path id="ProcessOnPath1148" d="M0.0 24.242424242424242C0.0 -8.080808080808081 77.54010695187166 -8.080808080808081 77.54010695187166 24.242424242424242C77.54010695187166 56.56565656565657 0.0 56.56565656565657 0.0 24.242424242424242Z" stroke="#323232" stroke-width="2.0" stroke-dasharray="none" opacity="1.0" fill="#ffffff"/><g id="ProcessOnG1149" transform="matrix(1.0,0.0,0.0,1.0,10.0,7.992424242424242)"><text id="ProcessOnText1150" fill="#000000" font-size="13" x="27.770053475935832" y="13.325" font-family="微软雅黑" font-weight="normal" font-style="normal" text-decoration="none" family="微软雅黑" text-anchor="middle" size="13">本月已用</text><text id="ProcessOnText1151" fill="#000000" font-size="13" x="27.770053475935832" y="29.575" font-family="微软雅黑" font-weight="normal" font-style="normal" text-decoration="none" family="微软雅黑" text-anchor="middle" size="13">本地流量</text></g></g><g id="ProcessOnG1152" transform="matrix(1.0,0.0,0.0,1.0,432.944388078496,291.27272727272725)" opacity="1.0"><path id="ProcessOnPath1153" d="M0.0 24.242424242424242C0.0 -8.080808080808081 77.54010695187166 -8.080808080808081 77.54010695187166 24.242424242424242C77.54010695187166 56.56565656565657 0.0 56.56565656565657 0.0 24.242424242424242Z" stroke="#323232" stroke-width="2.0" stroke-dasharray="none" opacity="1.0" fill="#ffffff"/><g id="ProcessOnG1154" transform="matrix(1.0,0.0,0.0,1.0,10.0,7.992424242424242)"><text id="ProcessOnText1155" fill="#000000" font-size="13" x="27.770053475935832" y="13.325" font-family="微软雅黑" font-weight="normal" font-style="normal" text-decoration="none" family="微软雅黑" text-anchor="middle" size="13">本月已发</text><text id="ProcessOnText1156" fill="#000000" font-size="13" x="27.770053475935832" y="29.575" font-family="微软雅黑" font-weight="normal" font-style="normal" text-decoration="none" family="微软雅黑" text-anchor="middle" size="13">短信</text></g></g><g id="ProcessOnG1157" transform="matrix(1.0,0.0,0.0,1.0,338.6898395721925,291.27272727272725)" opacity="1.0"><path id="ProcessOnPath1158" d="M0.0 24.242424242424242C0.0 -8.080808080808081 77.54010695187166 -8.080808080808081 77.54010695187166 24.242424242424242C77.54010695187166 56.56565656565657 0.0 56.56565656565657 0.0 24.242424242424242Z" stroke="#323232" stroke-width="2.0" stroke-dasharray="none" opacity="1.0" fill="#ffffff"/><g id="ProcessOnG1159" transform="matrix(1.0,0.0,0.0,1.0,10.0,7.992424242424242)"><text id="ProcessOnText1160" fill="#000000" font-size="13" x="27.770053475935832" y="13.325" font-family="微软雅黑" font-weight="normal" font-style="normal" text-decoration="none" family="微软雅黑" text-anchor="middle" size="13">本月已通</text><text id="ProcessOnText1161" fill="#000000" font-size="13" x="27.770053475935832" y="29.575" font-family="微软雅黑" font-weight="normal" font-style="normal" text-decoration="none" family="微软雅黑" text-anchor="middle" size="13">话</text></g></g><g id="ProcessOnG1162"><path id="ProcessOnPath1163" d="M377.4598930481283 339.75757575757575L523.0 605.6060606060606" stroke="#323232" stroke-width="2.0" stroke-dasharray="none" fill="none"/></g><g id="ProcessOnG1164"><path id="ProcessOnPath1165" d="M523.0 605.6060606060606L471.71444155443186 339.75757575757575" stroke="#323232" stroke-width="2.0" stroke-dasharray="none" fill="none"/></g><g id="ProcessOnG1166"><path id="ProcessOnPath1167" d="M523.0 605.6060606060606L566.3368983957218 343.75757575757575" stroke="#323232" stroke-width="2.0" stroke-dasharray="none" fill="none"/></g><g id="ProcessOnG1168" transform="matrix(1.0,0.0,0.0,1.0,1048.229946524064,639.5)" opacity="1.0"><path id="ProcessOnPath1169" d="M0.0 24.242424242424242C0.0 -8.080808080808081 77.54010695187166 -8.080808080808081 77.54010695187166 24.242424242424242C77.54010695187166 56.56565656565657 0.0 56.56565656565657 0.0 24.242424242424242Z" stroke="#323232" stroke-width="2.0" stroke-dasharray="none" opacity="1.0" fill="#ffffff"/><g id="ProcessOnG1170" transform="matrix(1.0,0.0,0.0,1.0,10.0,16.117424242424242)"><text id="ProcessOnText1171" fill="#000000" font-size="13" x="27.770053475935832" y="13.325" font-family="微软雅黑" font-weight="normal" font-style="normal" text-decoration="none" family="微软雅黑" text-anchor="middle" size="13">计费</text></g></g><g id="ProcessOnG1172"><path id="ProcessOnPath1173" d="M985.4438502673796 625.0L1048.229946524064 663.7424242424242" stroke="#323232" stroke-width="2.0" stroke-dasharray="none" fill="none"/></g><g id="ProcessOnG1174" transform="matrix(1.0,0.0,0.0,1.0,724.3529411764705,295.27272727272725)" opacity="1.0"><path id="ProcessOnPath1175" d="M0.0 24.242424242424242C0.0 -8.080808080808081 77.54010695187166 -8.080808080808081 77.54010695187166 24.242424242424242C77.54010695187166 56.56565656565657 0.0 56.56565656565657 0.0 24.242424242424242Z" stroke="#323232" stroke-width="2.0" stroke-dasharray="none" opacity="1.0" fill="#ffffff"/><g id="ProcessOnG1176" transform="matrix(1.0,0.0,0.0,1.0,10.0,16.117424242424242)"><text id="ProcessOnText1177" fill="#000000" font-size="13" x="27.770053475935832" y="13.325" font-family="微软雅黑" font-weight="normal" font-style="normal" text-decoration="none" family="微软雅黑" text-anchor="middle" size="13">账户余额</text></g></g><g id="ProcessOnG1178"><path id="ProcessOnPath1179" d="M523.0 605.6060606060606L763.1229946524063 343.75757575757575" stroke="#323232" stroke-width="2.0" stroke-dasharray="none" fill="none"/></g><g id="ProcessOnG1180" transform="matrix(1.0,0.0,0.0,1.0,621.2299465240642,835.2424242424242)" opacity="1.0"><path id="ProcessOnPath1181" d="M0.0 24.242424242424242C0.0 -8.080808080808081 77.54010695187166 -8.080808080808081 77.54010695187166 24.242424242424242C77.54010695187166 56.56565656565657 0.0 56.56565656565657 0.0 24.242424242424242Z" stroke="#323232" stroke-width="2.0" stroke-dasharray="none" opacity="1.0" fill="#ffffff"/><g id="ProcessOnG1182" transform="matrix(1.0,0.0,0.0,1.0,10.0,16.117424242424242)"><text id="ProcessOnText1183" fill="#000000" font-size="13" x="27.770053475935832" y="13.325" font-family="微软雅黑" font-weight="normal" font-style="normal" text-decoration="none" family="微软雅黑" text-anchor="middle" size="13">订单状态</text></g></g><g id="ProcessOnG1184"><path id="ProcessOnPath1185" d="M557.9336928913301 782.0L621.2299465240642 859.4848484848485" stroke="#323232" stroke-width="2.0" stroke-dasharray="none" fill="none"/></g><g id="ProcessOnG1186" transform="matrix(1.0,0.0,0.0,1.0,87.2299465240642,850.4242424242423)" opacity="1.0"><path id="ProcessOnPath1187" d="M0.0 24.242424242424242C0.0 -8.080808080808081 77.54010695187166 -8.080808080808081 77.54010695187166 24.242424242424242C77.54010695187166 56.56565656565657 0.0 56.56565656565657 0.0 24.242424242424242Z" stroke="#323232" stroke-width="2.0" stroke-dasharray="none" opacity="1.0" fill="#ffffff"/><g id="ProcessOnG1188" transform="matrix(1.0,0.0,0.0,1.0,10.0,16.117424242424242)"><text id="ProcessOnText1189" fill="#000000" font-size="13" x="27.770053475935832" y="13.325" font-family="微软雅黑" font-weight="normal" font-style="normal" text-decoration="none" family="微软雅黑" text-anchor="middle" size="13">生效时间</text></g></g><g id="ProcessOnG1190"><path id="ProcessOnPath1191" d="M198.2299465240642 625.0L164.77005347593587 874.6666666666665" stroke="#323232" stroke-width="2.0" stroke-dasharray="none" fill="none"/></g><g id="ProcessOnG1192"><path id="ProcessOnPath1193" d="M523.0406447629879 947.3939393939393L355.9176501105816 1062.7575757575755" stroke="#323232" stroke-width="2.0" stroke-dasharray="none" fill="none"/></g><g id="ProcessOnG1194"><path id="ProcessOnPath1195" d="M523.0406447629879 947.3939393939393L464.347593582888 1062.7575757575755" stroke="#323232" stroke-width="2.0" stroke-dasharray="none" fill="none"/></g><g id="ProcessOnG1196"><path id="ProcessOnPath1197" d="M523.0406447629879 947.3939393939393L563.8770053475936 1062.7575757575755" stroke="#323232" stroke-width="2.0" stroke-dasharray="none" fill="none"/></g><g id="ProcessOnG1198"><path id="ProcessOnPath1199" d="M523.0406447629879 947.3939393939393L663.794655458175 1062.7575757575755" stroke="#323232" stroke-width="2.0" stroke-dasharray="none" fill="none"/></g><g id="ProcessOnG1200" transform="matrix(1.0,0.0,0.0,1.0,627.4844950303675,295.27272727272725)" opacity="1.0"><path id="ProcessOnPath1201" d="M0.0 24.242424242424242C0.0 -8.080808080808081 77.54010695187166 -8.080808080808081 77.54010695187166 24.242424242424242C77.54010695187166 56.56565656565657 0.0 56.56565656565657 0.0 24.242424242424242Z" stroke="#323232" stroke-width="2.0" stroke-dasharray="none" opacity="1.0" fill="#ffffff"/><g id="ProcessOnG1202" transform="matrix(1.0,0.0,0.0,1.0,10.0,7.992424242424242)"><text id="ProcessOnText1203" fill="#000000" font-size="13" x="27.770053475935832" y="13.325" font-family="微软雅黑" font-weight="normal" font-style="normal" text-decoration="none" family="微软雅黑" text-anchor="middle" size="13">本月已用</text><text id="ProcessOnText1204" fill="#000000" font-size="13" x="27.770053475935832" y="29.575" font-family="微软雅黑" font-weight="normal" font-style="normal" text-decoration="none" family="微软雅黑" text-anchor="middle" size="13">全国流量</text></g></g><g id="ProcessOnG1205" transform="matrix(1.0,0.0,0.0,1.0,912.55614973262,799.5757575757577)" opacity="1.0"><path id="ProcessOnPath1206" d="M0.0 0.0L72.88770053475936 0.0L72.88770053475936 38.78787878787879L0.0 38.78787878787879Z" stroke="#323232" stroke-width="2.0" stroke-dasharray="none" opacity="1.0" fill="#ffffff"/><g id="ProcessOnG1207" transform="matrix(1.0,0.0,0.0,1.0,10.0,3.1439393939393945)"><text id="ProcessOnText1208" fill="#000000" font-size="13" x="25.44385026737968" y="13.325" font-family="微软雅黑" font-weight="normal" font-style="normal" text-decoration="none" family="微软雅黑" text-anchor="middle" size="13">通话记</text><text id="ProcessOnText1209" fill="#000000" font-size="13" x="25.44385026737968" y="29.575" font-family="微软雅黑" font-weight="normal" font-style="normal" text-decoration="none" family="微软雅黑" text-anchor="middle" size="13">录</text></g></g><g id="ProcessOnG1210" transform="matrix(1.0,0.0,0.0,1.0,912.5561497326202,391.969696969697)" opacity="1.0"><path id="ProcessOnPath1211" d="M0.0 0.0L72.88770053475936 0.0L72.88770053475936 38.78787878787879L0.0 38.78787878787879Z" stroke="#323232" stroke-width="2.0" stroke-dasharray="none" opacity="1.0" fill="#ffffff"/><g id="ProcessOnG1212" transform="matrix(1.0,0.0,0.0,1.0,10.0,3.1439393939393945)"><text id="ProcessOnText1213" fill="#000000" font-size="13" x="25.44385026737968" y="13.325" font-family="微软雅黑" font-weight="normal" font-style="normal" text-decoration="none" family="微软雅黑" text-anchor="middle" size="13">流量使</text><text id="ProcessOnText1214" fill="#000000" font-size="13" x="25.44385026737968" y="29.575" font-family="微软雅黑" font-weight="normal" font-style="normal" text-decoration="none" family="微软雅黑" text-anchor="middle" size="13">用记录</text></g></g><g id="ProcessOnG1215" transform="matrix(1.0,0.0,0.0,1.0,1048.229946524064,748.2424242424242)" opacity="1.0"><path id="ProcessOnPath1216" d="M0.0 24.242424242424242C0.0 -8.080808080808081 77.54010695187166 -8.080808080808081 77.54010695187166 24.242424242424242C77.54010695187166 56.56565656565657 0.0 56.56565656565657 0.0 24.242424242424242Z" stroke="#323232" stroke-width="2.0" stroke-dasharray="none" opacity="1.0" fill="#ffffff"/><g id="ProcessOnG1217" transform="matrix(1.0,0.0,0.0,1.0,10.0,16.117424242424242)"><text id="ProcessOnText1218" fill="#000000" font-size="13" x="27.770053475935832" y="13.325" font-family="微软雅黑" font-weight="normal" font-style="normal" text-decoration="none" family="微软雅黑" text-anchor="middle" size="13">开始时间</text></g></g><g id="ProcessOnG1219" transform="matrix(1.0,0.0,0.0,1.0,1048.229946524064,811.878787878788)" opacity="1.0"><path id="ProcessOnPath1220" d="M0.0 24.242424242424242C0.0 -8.080808080808081 77.54010695187166 -8.080808080808081 77.54010695187166 24.242424242424242C77.54010695187166 56.56565656565657 0.0 56.56565656565657 0.0 24.242424242424242Z" stroke="#323232" stroke-width="2.0" stroke-dasharray="none" opacity="1.0" fill="#ffffff"/><g id="ProcessOnG1221" transform="matrix(1.0,0.0,0.0,1.0,10.0,16.117424242424242)"><text id="ProcessOnText1222" fill="#000000" font-size="13" x="27.770053475935832" y="13.325" font-family="微软雅黑" font-weight="normal" font-style="normal" text-decoration="none" family="微软雅黑" text-anchor="middle" size="13">通话时长</text></g></g><g id="ProcessOnG1223" transform="matrix(1.0,0.0,0.0,1.0,1048.229946524064,877.3636363636365)" opacity="1.0"><path id="ProcessOnPath1224" d="M0.0 24.242424242424242C0.0 -8.080808080808081 77.54010695187166 -8.080808080808081 77.54010695187166 24.242424242424242C77.54010695187166 56.56565656565657 0.0 56.56565656565657 0.0 24.242424242424242Z" stroke="#323232" stroke-width="2.0" stroke-dasharray="none" opacity="1.0" fill="#ffffff"/><g id="ProcessOnG1225" transform="matrix(1.0,0.0,0.0,1.0,10.0,16.117424242424242)"><text id="ProcessOnText1226" fill="#000000" font-size="13" x="27.770053475935832" y="13.325" font-family="微软雅黑" font-weight="normal" font-style="normal" text-decoration="none" family="微软雅黑" text-anchor="middle" size="13">计费</text></g></g><g id="ProcessOnG1227"><path id="ProcessOnPath1228" d="M985.4438502673794 818.9696969696971L1048.229946524064 836.1212121212122" stroke="#323232" stroke-width="2.0" stroke-dasharray="none" fill="none"/></g><g id="ProcessOnG1229"><path id="ProcessOnPath1230" d="M985.4438502673794 818.9696969696971L1048.229946524064 772.4848484848485" stroke="#323232" stroke-width="2.0" stroke-dasharray="none" fill="none"/></g><g id="ProcessOnG1231"><path id="ProcessOnPath1232" d="M985.4438502673794 818.9696969696971L1048.229946524064 901.6060606060607" stroke="#323232" stroke-width="2.0" stroke-dasharray="none" fill="none"/></g><g id="ProcessOnG1233"><path id="ProcessOnPath1234" d="M985.4438502673795 411.3636363636364L1048.229946524064 277.5151515151515" stroke="#323232" stroke-width="2.0" stroke-dasharray="none" fill="none"/></g><g id="ProcessOnG1235" transform="matrix(1.0,0.0,0.0,1.0,1048.229946524064,444.27272727272725)" opacity="1.0"><path id="ProcessOnPath1236" d="M0.0 24.242424242424242C0.0 -8.080808080808081 77.54010695187166 -8.080808080808081 77.54010695187166 24.242424242424242C77.54010695187166 56.56565656565657 0.0 56.56565656565657 0.0 24.242424242424242Z" stroke="#323232" stroke-width="2.0" stroke-dasharray="none" opacity="1.0" fill="#ffffff"/><g id="ProcessOnG1237" transform="matrix(1.0,0.0,0.0,1.0,10.0,16.117424242424242)"><text id="ProcessOnText1238" fill="#000000" font-size="13" x="27.770053475935832" y="13.325" font-family="微软雅黑" font-weight="normal" font-style="normal" text-decoration="none" family="微软雅黑" text-anchor="middle" size="13">计费</text></g></g><g id="ProcessOnG1239"><path id="ProcessOnPath1240" d="M985.4438502673795 411.3636363636364L1048.229946524064 343.5151515151515" stroke="#323232" stroke-width="2.0" stroke-dasharray="none" fill="none"/></g><g id="ProcessOnG1241"><path id="ProcessOnPath1242" d="M985.4438502673795 411.3636363636364L1048.229946524064 406.5151515151515" stroke="#323232" stroke-width="2.0" stroke-dasharray="none" fill="none"/></g><g id="ProcessOnG1243"><path id="ProcessOnPath1244" d="M985.4438502673795 411.3636363636364L1050.7320508075686 460.0" stroke="#323232" stroke-width="2.0" stroke-dasharray="none" fill="none"/></g><g id="ProcessOnG1245" transform="matrix(1.0,0.0,0.0,1.0,732.1069518716577,513.530303030303)" opacity="1.0"><path id="ProcessOnPath1246" d="M0.0 24.242424242424242L34.893048128342244 0.0L69.78609625668449 24.242424242424242L34.893048128342244 48.484848484848484L0.0 24.242424242424242Z" stroke="#323232" stroke-width="2.0" stroke-dasharray="none" opacity="1.0" fill="#ffffff"/><g id="ProcessOnG1247" transform="matrix(1.0,0.0,0.0,1.0,10.0,16.117424242424242)"><text id="ProcessOnText1248" fill="#000000" font-size="13" x="23.893048128342244" y="13.325" font-family="微软雅黑" font-weight="normal" font-style="normal" text-decoration="none" family="微软雅黑" text-anchor="middle" size="13">拥有</text></g></g><g id="ProcessOnG1249" transform="matrix(1.0,0.0,0.0,1.0,732.1069518716577,683.7575757575758)" opacity="1.0"><path id="ProcessOnPath1250" d="M0.0 24.242424242424242L34.893048128342244 0.0L69.78609625668449 24.242424242424242L34.893048128342244 48.484848484848484L0.0 24.242424242424242Z" stroke="#323232" stroke-width="2.0" stroke-dasharray="none" opacity="1.0" fill="#ffffff"/><g id="ProcessOnG1251" transform="matrix(1.0,0.0,0.0,1.0,10.0,16.117424242424242)"><text id="ProcessOnText1252" fill="#000000" font-size="13" x="23.893048128342244" y="13.325" font-family="微软雅黑" font-weight="normal" font-style="normal" text-decoration="none" family="微软雅黑" text-anchor="middle" size="13">拥有</text></g></g><g id="ProcessOnG1253"><path id="ProcessOnPath1254" d="M559.4438502673796 625.0L732.1069518716577 537.7727272727273" stroke="#323232" stroke-width="2.0" stroke-dasharray="none" fill="none"/><g id="ProcessOnG1255" transform="matrix(1.0,0.0,0.0,1.0,645.7754010695187,573.2613636363636)"><path id="ProcessOnPath1256" d="M0 0H8.0V16.25H0Z" fill="#fff" transform="matrix(1.0,0.0,0.0,1.0,-4.0,0.0)"/><text id="ProcessOnText1257" fill="#000000" font-size="13" x="0.0" y="13.325" font-family="微软雅黑" font-weight="normal" font-style="normal" text-decoration="none" family="微软雅黑" text-anchor="middle" size="13">1</text></g></g><g id="ProcessOnG1258"><path id="ProcessOnPath1259" d="M559.4438502673796 625.0L732.1069518716577 708.0" stroke="#323232" stroke-width="2.0" stroke-dasharray="none" fill="none"/><g id="ProcessOnG1260" transform="matrix(1.0,0.0,0.0,1.0,645.7754010695187,658.375)"><path id="ProcessOnPath1261" d="M0 0H8.0V16.25H0Z" fill="#fff" transform="matrix(1.0,0.0,0.0,1.0,-4.0,0.0)"/><text id="ProcessOnText1262" fill="#000000" font-size="13" x="0.0" y="13.325" font-family="微软雅黑" font-weight="normal" font-style="normal" text-decoration="none" family="微软雅黑" text-anchor="middle" size="13">1</text></g></g><g id="ProcessOnG1263"><path id="ProcessOnPath1264" d="M801.8930481283421 537.7727272727273L912.5561497326202 411.3636363636364" stroke="#323232" stroke-width="2.0" stroke-dasharray="none" fill="none"/><g id="ProcessOnG1265" transform="matrix(1.0,0.0,0.0,1.0,857.2245989304811,466.4431818181818)"><path id="ProcessOnPath1266" d="M0 0H11.0V16.25H0Z" fill="#fff" transform="matrix(1.0,0.0,0.0,1.0,-5.5,0.0)"/><text id="ProcessOnText1267" fill="#000000" font-size="13" x="0.0" y="13.325" font-family="微软雅黑" font-weight="normal" font-style="normal" text-decoration="none" family="微软雅黑" text-anchor="middle" size="13">N</text></g></g><g id="ProcessOnG1268"><path id="ProcessOnPath1269" d="M801.8930481283421 708.0L912.55614973262 818.9696969696971" stroke="#323232" stroke-width="2.0" stroke-dasharray="none" fill="none"/><g id="ProcessOnG1270" transform="matrix(1.0,0.0,0.0,1.0,857.2245989304811,755.3598484848485)"><path id="ProcessOnPath1271" d="M0 0H11.0V16.25H0Z" fill="#fff" transform="matrix(1.0,0.0,0.0,1.0,-5.5,0.0)"/><text id="ProcessOnText1272" fill="#000000" font-size="13" x="0.0" y="13.325" font-family="微软雅黑" font-weight="normal" font-style="normal" text-decoration="none" family="微软雅黑" text-anchor="middle" size="13">N</text></g></g><g id="ProcessOnG1273" transform="matrix(1.0,0.0,0.0,1.0,1048.229946524064,503.27272727272725)" opacity="1.0"><path id="ProcessOnPath1274" d="M0.0 24.242424242424242C0.0 -8.080808080808081 77.54010695187166 -8.080808080808081 77.54010695187166 24.242424242424242C77.54010695187166 56.56565656565657 0.0 56.56565656565657 0.0 24.242424242424242Z" stroke="#323232" stroke-width="2.0" stroke-dasharray="none" opacity="1.0" fill="#ffffff"/><g id="ProcessOnG1275" transform="matrix(1.0,0.0,0.0,1.0,10.0,16.117424242424242)"><text id="ProcessOnText1276" fill="#000000" font-size="13" x="27.770053475935832" y="13.325" font-family="微软雅黑" font-weight="normal" font-style="normal" text-decoration="none" family="微软雅黑" text-anchor="middle" size="13">流量类型</text></g></g><g id="ProcessOnG1277"><path id="ProcessOnPath1278" d="M985.4438502673795 411.3636363636364L1048.229946524064 527.5151515151515" stroke="#323232" stroke-width="2.0" stroke-dasharray="none" fill="none"/></g><g id="ProcessOnG1279" transform="matrix(1.0,0.0,0.0,1.0,480.3935859394585,215.27272727272725)" opacity="1.0"><path id="ProcessOnPath1280" d="M0.0 24.242424242424242C0.0 -8.080808080808081 77.54010695187166 -8.080808080808081 77.54010695187166 24.242424242424242C77.54010695187166 56.56565656565657 0.0 56.56565656565657 0.0 24.242424242424242Z" stroke="#323232" stroke-width="2.0" stroke-dasharray="none" opacity="1.0" fill="#ffffff"/><g id="ProcessOnG1281" transform="matrix(1.0,0.0,0.0,1.0,10.0,-0.1325757575757578)"><text id="ProcessOnText1282" fill="#000000" font-size="13" x="27.770053475935832" y="13.325" font-family="微软雅黑" font-weight="normal" font-style="normal" text-decoration="none" family="微软雅黑" text-anchor="middle" size="13">本月套餐</text><text id="ProcessOnText1283" fill="#000000" font-size="13" x="27.770053475935832" y="29.575" font-family="微软雅黑" font-weight="normal" font-style="normal" text-decoration="none" family="微软雅黑" text-anchor="middle" size="13">外全国流</text><text id="ProcessOnText1284" fill="#000000" font-size="13" x="27.770053475935832" y="45.825" font-family="微软雅黑" font-weight="normal" font-style="normal" text-decoration="none" family="微软雅黑" text-anchor="middle" size="13">量</text></g></g><g id="ProcessOnG1285" transform="matrix(1.0,0.0,0.0,1.0,592.2299465240642,212.75757575757575)" opacity="1.0"><path id="ProcessOnPath1286" d="M0.0 24.242424242424242C0.0 -8.080808080808081 77.54010695187166 -8.080808080808081 77.54010695187166 24.242424242424242C77.54010695187166 56.56565656565657 0.0 56.56565656565657 0.0 24.242424242424242Z" stroke="#323232" stroke-width="2.0" stroke-dasharray="none" opacity="1.0" fill="#ffffff"/><g id="ProcessOnG1287" transform="matrix(1.0,0.0,0.0,1.0,10.0,-0.1325757575757578)"><text id="ProcessOnText1288" fill="#000000" font-size="13" x="27.770053475935832" y="13.325" font-family="微软雅黑" font-weight="normal" font-style="normal" text-decoration="none" family="微软雅黑" text-anchor="middle" size="13">本月套餐</text><text id="ProcessOnText1289" fill="#000000" font-size="13" x="27.770053475935832" y="29.575" font-family="微软雅黑" font-weight="normal" font-style="normal" text-decoration="none" family="微软雅黑" text-anchor="middle" size="13">外本地流</text><text id="ProcessOnText1290" fill="#000000" font-size="13" x="27.770053475935832" y="45.825" font-family="微软雅黑" font-weight="normal" font-style="normal" text-decoration="none" family="微软雅黑" text-anchor="middle" size="13">量</text></g></g><g id="ProcessOnG1291" transform="matrix(1.0,0.0,0.0,1.0,708.2299465240642,215.27272727272725)" opacity="1.0"><path id="ProcessOnPath1292" d="M0.0 24.242424242424242C0.0 -8.080808080808081 77.54010695187166 -8.080808080808081 77.54010695187166 24.242424242424242C77.54010695187166 56.56565656565657 0.0 56.56565656565657 0.0 24.242424242424242Z" stroke="#323232" stroke-width="2.0" stroke-dasharray="none" opacity="1.0" fill="#ffffff"/><g id="ProcessOnG1293" transform="matrix(1.0,0.0,0.0,1.0,10.0,7.992424242424242)"><text id="ProcessOnText1294" fill="#000000" font-size="13" x="27.770053475935832" y="13.325" font-family="微软雅黑" font-weight="normal" font-style="normal" text-decoration="none" family="微软雅黑" text-anchor="middle" size="13">本月套餐</text><text id="ProcessOnText1295" fill="#000000" font-size="13" x="27.770053475935832" y="29.575" font-family="微软雅黑" font-weight="normal" font-style="normal" text-decoration="none" family="微软雅黑" text-anchor="middle" size="13">外通话</text></g></g><g id="ProcessOnG1296" transform="matrix(1.0,0.0,0.0,1.0,368.2299465240642,215.27272727272725)" opacity="1.0"><path id="ProcessOnPath1297" d="M0.0 24.242424242424242C0.0 -8.080808080808081 77.54010695187166 -8.080808080808081 77.54010695187166 24.242424242424242C77.54010695187166 56.56565656565657 0.0 56.56565656565657 0.0 24.242424242424242Z" stroke="#323232" stroke-width="2.0" stroke-dasharray="none" opacity="1.0" fill="#ffffff"/><g id="ProcessOnG1298" transform="matrix(1.0,0.0,0.0,1.0,10.0,7.992424242424242)"><text id="ProcessOnText1299" fill="#000000" font-size="13" x="27.770053475935832" y="13.325" font-family="微软雅黑" font-weight="normal" font-style="normal" text-decoration="none" family="微软雅黑" text-anchor="middle" size="13">本月套餐</text><text id="ProcessOnText1300" fill="#000000" font-size="13" x="27.770053475935832" y="29.575" font-family="微软雅黑" font-weight="normal" font-style="normal" text-decoration="none" family="微软雅黑" text-anchor="middle" size="13">外短信</text></g></g><g id="ProcessOnG1301"><path id="ProcessOnPath1302" d="M666.2545485063033 343.75757575757575L523.0 605.6060606060606" stroke="#323232" stroke-width="2.0" stroke-dasharray="none" fill="none"/></g><g id="ProcessOnG1303"><path id="ProcessOnPath1304" d="M631.0 261.24242424242425L523.0 605.6060606060606" stroke="#323232" stroke-width="2.0" stroke-dasharray="none" fill="none"/></g><g id="ProcessOnG1305"><path id="ProcessOnPath1306" d="M747.0 263.75757575757575L523.0 605.6060606060606" stroke="#323232" stroke-width="2.0" stroke-dasharray="none" fill="none"/></g><g id="ProcessOnG1307"><path id="ProcessOnPath1308" d="M519.1636394153943 263.75757575757575L523.0 605.6060606060606" stroke="#323232" stroke-width="2.0" stroke-dasharray="none" fill="none"/></g><g id="ProcessOnG1309"><path id="ProcessOnPath1310" d="M407.0 263.75757575757575L523.0 605.6060606060606" stroke="#323232" stroke-width="2.0" stroke-dasharray="none" fill="none"/></g></g></g></svg>